<svg width="50" height="32" viewBox="0 0 50 32" fill="none" xmlns="http://www.w3.org/2000/svg">
<path d="M25.2975 14.8427C26.2149 14.0948 27.062 13.0866 27.6074 12.0039C26.8595 11.7642 26.0702 11.5948 25.2975 11.5948V14.8427ZM24.7273 14.818C23.781 14.0989 22.938 13.0907 22.3926 12.008C23.1364 11.7436 23.9298 11.5989 24.7273 11.5989V14.818ZM25.2975 0.317956C26.2149 1.06176 27.062 2.04523 27.6074 3.13201C26.8595 3.39234 26.0702 3.56589 25.2975 3.56589V0.317956ZM24.7273 0.317956C23.781 1.06176 22.938 2.07415 22.3926 3.13201C23.1364 3.37168 23.9298 3.56589 24.7273 3.56589V0.317956ZM25.2975 11.0204V7.84275H28.7479C28.7479 9.11961 28.4256 10.3675 27.8802 11.5246C27.0868 11.2394 26.1405 11.0411 25.2975 11.0204ZM32.8223 7.84275H29.3471C29.2975 9.23944 28.9959 10.4915 28.4298 11.7394C29.1736 12.0783 29.8388 12.4832 30.4876 13.0122C31.905 11.6196 32.7438 9.76837 32.8223 7.84275ZM30.0661 13.3758C29.5207 12.9171 28.8223 12.4832 28.1529 12.2229C27.5331 13.351 26.7645 14.289 25.7934 15.132C27.3595 14.9378 28.8223 14.3634 30.0661 13.3758ZM24.7273 11.0204V7.84275H21.2562C21.2769 9.11961 21.5744 10.3923 22.124 11.5246C22.938 11.2394 23.8347 11.0411 24.7273 11.0204ZM17.1777 7.84275H20.657C20.7314 9.23944 21.0289 10.4626 21.6033 11.7394C20.8306 12.0783 20.1612 12.4832 19.5165 13.0122C18.095 11.6196 17.281 9.81382 17.1777 7.84275ZM19.9339 13.3758C20.5083 12.9419 21.1736 12.4626 21.8471 12.2229C22.4669 13.351 23.2355 14.289 24.2066 15.132C22.6405 14.9378 21.1529 14.3634 19.9339 13.3758ZM25.2975 4.11548V7.29316H28.7479C28.7479 6.0163 28.4256 4.79316 27.8802 3.61134C27.0661 3.9006 26.1653 4.09068 25.2975 4.11548ZM32.8223 7.28903H29.3471C29.2975 5.91713 28.9752 4.6444 28.4298 3.41713C29.1736 3.07829 29.8678 2.6444 30.4876 2.14027C31.9752 3.58242 32.7438 5.39234 32.8223 7.28903ZM30.0661 1.76011C29.4959 2.24358 28.8223 2.67333 28.1529 2.93779C27.5331 1.78077 26.7645 0.867543 25.7934 0.00390625C27.3595 0.198121 28.8223 0.776634 30.0661 1.76011ZM24.7273 4.11548V7.29316H21.2562C21.2769 6.0411 21.5744 4.76837 22.124 3.61134C22.938 3.9006 23.8347 4.09068 24.7273 4.11548ZM17.1777 7.28903H20.657C20.7314 5.89234 21.0289 4.6692 21.6033 3.41713C20.8306 3.07829 20.1612 2.6692 19.5165 2.14027C18.0702 3.5411 17.281 5.34275 17.1777 7.28903ZM19.9339 1.76011C20.5083 2.24358 21.1529 2.67333 21.8471 2.93779C22.4421 1.80556 23.2603 0.846881 24.2066 0.00390625C22.6405 0.198121 21.1736 0.776634 19.9339 1.76011ZM0 10.1031H15.6116C16.1859 12.8923 18.1694 15.2023 22.1198 16.8138C21.6694 18.1361 20.1322 19.3593 18.5413 19.3593H10.0826C8.78512 19.3593 7.77273 18.2973 7.35124 17.4585H15.9628C16.4876 17.3675 16.5124 16.9585 15.9876 16.9089H7.52066C6.42975 16.9089 5.43388 15.9915 4.86364 15.008H14.719C15.2149 14.9337 15.2149 14.5246 14.719 14.4543H4.78926C3.79752 14.4543 2.88017 13.3262 2.50413 12.5576H13.405C13.9504 12.4832 13.9504 12.0039 13.405 11.9791H2.30579C1.43802 11.9791 0.595041 11.0659 0 10.1031ZM50 10.1031H34.3843C33.814 12.8923 31.8264 15.2023 27.8802 16.8138C28.3264 18.1361 29.8636 19.3593 31.4545 19.3593H39.9215C41.2149 19.3593 42.2314 18.2973 42.6529 17.4585H34.0372C33.5165 17.3675 33.4876 16.9585 34.0124 16.9089H42.4793C43.5744 16.9089 44.562 15.9915 45.1322 15.008H35.281C34.781 14.9337 34.781 14.5246 35.281 14.4543H45.2149C46.2066 14.4543 47.1198 13.3262 47.4917 12.5576H36.5909C36.0455 12.4832 36.0455 12.0039 36.5909 11.9791H47.6901C48.562 11.9791 49.4091 11.0659 50 10.1031ZM32.4008 31.2188L37.4091 21.3097H40.686L42.7479 31.2188H39.6446L39.4959 30.0411H36.2149L35.6942 31.2188H32.4008ZM37.0413 27.975H39.1488L38.6033 24.3428L37.0413 27.975ZM25.8926 31.2188L27.0331 23.7642H24.1281L24.6281 21.2601H33.5413L33.0413 23.7642H30.2893L29.1736 31.2188H25.8926ZM12.4835 31.2188L17.5 21.3097H20.7769L22.8388 31.2188H19.7603L19.5826 30.0411H16.3099L15.7893 31.2188H12.4835ZM17.1322 27.975H19.2397L18.6901 24.3428L17.1322 27.975ZM7.12397 31.2188L9.15703 21.3097H12.4835L10.4504 31.2188H7.12397Z" fill="#1E32FA"/>
</svg>
