<svg width="121" height="20" viewBox="0 0 121 20" fill="none" xmlns="http://www.w3.org/2000/svg">
<circle cx="3" cy="10" r="2.25" stroke="#1C6AE4" stroke-width="1.5"/>
<line x1="6.5" y1="9.5" x2="114.5" y2="9.5" stroke="#EEF0EB" stroke-linecap="round"/>
<circle cx="118" cy="10" r="3" fill="#1C6AE4"/>
<path d="M55.625 16.875H66.875" stroke="#1C6AE4" stroke-width="1.7" stroke-linecap="round" stroke-linejoin="round"/>
<path d="M52.0928 6.25H53.4365L54.999 8.125H57.499L56.5225 5.19531C56.4916 5.10143 56.4834 5.00157 56.4986 4.90391C56.5138 4.80626 56.5519 4.7136 56.6099 4.63354C56.6678 4.55348 56.7439 4.48831 56.832 4.44336C56.92 4.39842 57.0174 4.37499 57.1162 4.375H58.4365L61.874 8.125H66.249C66.9121 8.125 67.548 8.38839 68.0168 8.85723C68.4857 9.32607 68.749 9.96196 68.749 10.625V12.5H54.9834C54.4465 12.4992 53.9241 12.3255 53.4935 12.0047C53.063 11.6839 52.7472 11.233 52.5928 10.7187L51.4912 7.05469C51.4631 6.96112 51.4574 6.86227 51.4744 6.76608C51.4914 6.66988 51.5308 6.57901 51.5893 6.50077C51.6478 6.42253 51.7238 6.35908 51.8112 6.31553C51.8987 6.27198 51.9951 6.24954 52.0928 6.25Z" stroke="#1C6AE4" stroke-width="1.7" stroke-linecap="round" stroke-linejoin="round"/>
</svg>
